<svg xmlns="http://www.w3.org/2000/svg" xml:space="preserve" width="200" height="200" viewBox="0 0 400 400"><path d="M0 0h400v400H0z" shape-rendering="crispEdges" style="fill:#fff;stroke-width:6.66667"/><svg xml:space="preserve" id="svg920" width="500" height="500" transform="matrix(.6098 0 0 .6098 -218.57 -132.74)" version="1.1" viewBox="0 0 820 820"/><g transform="matrix(.9442 0 0 .9442 -379.6 90.78)"><circle cx="516.26" cy="-79.45" r="6.1" style="stroke-width:.609756"/><circle cx="552.85" cy="-79.45" r="6.1" style="stroke-width:.609756"/><circle cx="601.63" cy="-79.45" r="6.1" style="stroke-width:.609756"/><circle cx="626.02" cy="-79.45" r="6.1" style="stroke-width:.609756"/><circle cx="662.6" cy="-79.45" r="6.1" style="stroke-width:.609756"/><circle cx="674.8" cy="-79.45" r="6.1" style="stroke-width:.609756"/><circle cx="686.99" cy="-79.45" r="6.1" style="stroke-width:.609756"/><circle cx="699.19" cy="-79.45" r="6.1" style="stroke-width:.609756"/><circle cx="711.38" cy="-79.45" r="6.1" style="stroke-width:.609756"/><circle cx="516.26" cy="-67.25" r="6.1" style="stroke-width:.609756"/><circle cx="552.85" cy="-67.25" r="6.1" style="stroke-width:.609756"/><circle cx="565.04" cy="-67.25" r="6.1" style="stroke-width:.609756"/><circle cx="613.82" cy="-67.25" r="6.1" style="stroke-width:.609756"/><circle cx="638.21" cy="-67.25" r="6.1" style="stroke-width:.609756"/><circle cx="650.41" cy="-67.25" r="6.1" style="stroke-width:.609756"/><circle cx="662.6" cy="-67.25" r="6.1" style="stroke-width:.609756"/><circle cx="686.99" cy="-67.25" r="6.1" style="stroke-width:.609756"/><circle cx="516.26" cy="-55.06" r="6.1" style="stroke-width:.609756"/><circle cx="565.04" cy="-55.06" r="6.1" style="stroke-width:.609756"/><circle cx="589.43" cy="-55.06" r="6.1" style="stroke-width:.609756"/><circle cx="613.82" cy="-55.06" r="6.1" style="stroke-width:.609756"/><circle cx="638.21" cy="-55.06" r="6.1" style="stroke-width:.609756"/><circle cx="662.6" cy="-55.06" r="6.1" style="stroke-width:.609756"/><circle cx="674.8" cy="-55.06" r="6.1" style="stroke-width:.609756"/><circle cx="699.19" cy="-55.06" r="6.1" style="stroke-width:.609756"/><circle cx="540.65" cy="-42.86" r="6.1" style="stroke-width:.609756"/><circle cx="565.04" cy="-42.86" r="6.1" style="stroke-width:.609756"/><circle cx="589.43" cy="-42.86" r="6.1" style="stroke-width:.609756"/><circle cx="601.63" cy="-42.86" r="6.1" style="stroke-width:.609756"/><circle cx="613.82" cy="-42.86" r="6.1" style="stroke-width:.609756"/><circle cx="626.02" cy="-42.86" r="6.1" style="stroke-width:.609756"/><circle cx="662.6" cy="-42.86" r="6.1" style="stroke-width:.609756"/><circle cx="674.8" cy="-42.86" r="6.1" style="stroke-width:.609756"/><circle cx="711.38" cy="-42.86" r="6.1" style="stroke-width:.609756"/><circle cx="528.46" cy="-30.67" r="6.1" style="stroke-width:.609756"/><circle cx="540.65" cy="-30.67" r="6.1" style="stroke-width:.609756"/><circle cx="565.04" cy="-30.67" r="6.1" style="stroke-width:.609756"/><circle cx="589.43" cy="-30.67" r="6.1" style="stroke-width:.609756"/><circle cx="638.21" cy="-30.67" r="6.1" style="stroke-width:.609756"/><circle cx="674.8" cy="-30.67" r="6.1" style="stroke-width:.609756"/><circle cx="686.99" cy="-30.67" r="6.1" style="stroke-width:.609756"/><circle cx="699.19" cy="-30.67" r="6.1" style="stroke-width:.609756"/><circle cx="516.26" cy="-18.47" r="6.1" style="stroke-width:.609756"/><circle cx="528.46" cy="-18.47" r="6.1" style="stroke-width:.609756"/><circle cx="552.85" cy="-18.47" r="6.1" style="stroke-width:.609756"/><circle cx="589.43" cy="-18.47" r="6.1" style="stroke-width:.609756"/><circle cx="601.63" cy="-18.47" r="6.1" style="stroke-width:.609756"/><circle cx="613.82" cy="-18.47" r="6.1" style="stroke-width:.609756"/><circle cx="650.41" cy="-18.47" r="6.1" style="stroke-width:.609756"/><circle cx="686.99" cy="-18.47" r="6.1" style="stroke-width:.609756"/><circle cx="699.19" cy="-18.47" r="6.1" style="stroke-width:.609756"/><circle cx="711.38" cy="-18.47" r="6.1" style="stroke-width:.609756"/><circle cx="516.26" cy="-6.28" r="6.1" style="stroke-width:.609756"/><circle cx="540.65" cy="-6.28" r="6.1" style="stroke-width:.609756"/><circle cx="565.04" cy="-6.28" r="6.1" style="stroke-width:.609756"/><circle cx="589.43" cy="-6.28" r="6.1" style="stroke-width:.609756"/><circle cx="613.82" cy="-6.28" r="6.1" style="stroke-width:.609756"/><circle cx="638.21" cy="-6.28" r="6.1" style="stroke-width:.609756"/><circle cx="662.6" cy="-6.28" r="6.1" style="stroke-width:.609756"/><circle cx="686.99" cy="-6.28" r="6.1" style="stroke-width:.609756"/><circle cx="711.38" cy="-6.28" r="6.1" style="stroke-width:.609756"/><circle cx="516.26" cy="5.92" r="6.1" style="stroke-width:.609756"/><circle cx="528.46" cy="5.92" r="6.1" style="stroke-width:.609756"/><circle cx="540.65" cy="5.92" r="6.1" style="stroke-width:.609756"/><circle cx="552.85" cy="5.92" r="6.1" style="stroke-width:.609756"/><circle cx="577.24" cy="5.92" r="6.1" style="stroke-width:.609756"/><circle cx="589.43" cy="5.92" r="6.1" style="stroke-width:.609756"/><circle cx="601.63" cy="5.92" r="6.1" style="stroke-width:.609756"/><circle cx="613.82" cy="5.92" r="6.1" style="stroke-width:.609756"/><circle cx="650.41" cy="5.92" r="6.1" style="stroke-width:.609756"/><circle cx="662.6" cy="5.92" r="6.1" style="stroke-width:.609756"/><circle cx="699.19" cy="5.92" r="6.1" style="stroke-width:.609756"/><circle cx="443.09" cy="18.11" r="6.1" style="stroke-width:.609756"/><circle cx="455.28" cy="18.11" r="6.1" style="stroke-width:.609756"/><circle cx="467.48" cy="18.11" r="6.1" style="stroke-width:.609756"/><circle cx="491.87" cy="18.11" r="6.1" style="stroke-width:.609756"/><circle cx="516.26" cy="18.11" r="6.1" style="stroke-width:.609756"/><circle cx="528.46" cy="18.11" r="6.1" style="stroke-width:.609756"/><circle cx="552.85" cy="18.11" r="6.1" style="stroke-width:.609756"/><circle cx="577.24" cy="18.11" r="6.1" style="stroke-width:.609756"/><circle cx="626.02" cy="18.11" r="6.1" style="stroke-width:.609756"/><circle cx="650.41" cy="18.11" r="6.1" style="stroke-width:.609756"/><circle cx="662.6" cy="18.11" r="6.1" style="stroke-width:.609756"/><circle cx="686.99" cy="18.11" r="6.1" style="stroke-width:.609756"/><circle cx="723.58" cy="18.11" r="6.1" style="stroke-width:.609756"/><circle cx="735.77" cy="18.11" r="6.1" style="stroke-width:.609756"/><circle cx="747.97" cy="18.11" r="6.1" style="stroke-width:.609756"/><circle cx="784.55" cy="18.11" r="6.1" style="stroke-width:.609756"/><circle cx="796.75" cy="18.11" r="6.1" style="stroke-width:.609756"/><circle cx="808.94" cy="18.11" r="6.1" style="stroke-width:.609756"/><circle cx="443.09" cy="30.31" r="6.1" style="stroke-width:.609756"/><circle cx="467.48" cy="30.31" r="6.1" style="stroke-width:.609756"/><circle cx="479.67" cy="30.31" r="6.1" style="stroke-width:.609756"/><circle cx="516.26" cy="30.31" r="6.1" style="stroke-width:.609756"/><circle cx="540.65" cy="30.31" r="6.1" style="stroke-width:.609756"/><circle cx="552.85" cy="30.31" r="6.1" style="stroke-width:.609756"/><circle cx="565.04" cy="30.31" r="6.1" style="stroke-width:.609756"/><circle cx="613.82" cy="30.31" r="6.1" style="stroke-width:.609756"/><circle cx="662.6" cy="30.31" r="6.1" style="stroke-width:.609756"/><circle cx="674.8" cy="30.31" r="6.1" style="stroke-width:.609756"/><circle cx="686.99" cy="30.31" r="6.1" style="stroke-width:.609756"/><circle cx="699.19" cy="30.31" r="6.1" style="stroke-width:.609756"/><circle cx="711.38" cy="30.31" r="6.1" style="stroke-width:.609756"/><circle cx="772.36" cy="30.31" r="6.1" style="stroke-width:.609756"/><circle cx="784.55" cy="30.31" r="6.1" style="stroke-width:.609756"/><circle cx="796.75" cy="30.31" r="6.1" style="stroke-width:.609756"/><circle cx="808.94" cy="30.31" r="6.1" style="stroke-width:.609756"/><circle cx="443.09" cy="42.5" r="6.1" style="stroke-width:.609756"/><circle cx="491.87" cy="42.5" r="6.1" style="stroke-width:.609756"/><circle cx="516.26" cy="42.5" r="6.1" style="stroke-width:.609756"/><circle cx="552.85" cy="42.5" r="6.1" style="stroke-width:.609756"/><circle cx="565.04" cy="42.5" r="6.1" style="stroke-width:.609756"/><circle cx="589.43" cy="42.5" r="6.1" style="stroke-width:.609756"/><circle cx="613.82" cy="42.5" r="6.1" style="stroke-width:.609756"/><circle cx="638.21" cy="42.5" r="6.1" style="stroke-width:.609756"/><circle cx="686.99" cy="42.5" r="6.1" style="stroke-width:.609756"/><circle cx="711.38" cy="42.5" r="6.1" style="stroke-width:.609756"/><circle cx="723.58" cy="42.5" r="6.1" style="stroke-width:.609756"/><circle cx="760.16" cy="42.5" r="6.1" style="stroke-width:.609756"/><circle cx="796.75" cy="42.5" r="6.1" style="stroke-width:.609756"/><circle cx="808.94" cy="42.5" r="6.1" style="stroke-width:.609756"/><circle cx="443.09" cy="54.7" r="6.1" style="stroke-width:.609756"/><circle cx="455.28" cy="54.7" r="6.1" style="stroke-width:.609756"/><circle cx="504.06" cy="54.7" r="6.1" style="stroke-width:.609756"/><circle cx="540.65" cy="54.7" r="6.1" style="stroke-width:.609756"/><circle cx="699.19" cy="54.7" r="6.1" style="stroke-width:.609756"/><circle cx="723.58" cy="54.7" r="6.1" style="stroke-width:.609756"/><circle cx="735.77" cy="54.7" r="6.1" style="stroke-width:.609756"/><circle cx="772.36" cy="54.7" r="6.1" style="stroke-width:.609756"/><circle cx="784.55" cy="54.7" r="6.1" style="stroke-width:.609756"/><circle cx="808.94" cy="54.7" r="6.1" style="stroke-width:.609756"/><circle cx="418.7" cy="66.89" r="6.1" style="stroke-width:.609756"/><circle cx="430.89" cy="66.89" r="6.1" style="stroke-width:.609756"/><circle cx="443.09" cy="66.89" r="6.1" style="stroke-width:.609756"/><circle cx="479.67" cy="66.89" r="6.1" style="stroke-width:.609756"/><circle cx="491.87" cy="66.89" r="6.1" style="stroke-width:.609756"/><circle cx="528.46" cy="66.89" r="6.1" style="stroke-width:.609756"/><circle cx="735.77" cy="66.89" r="6.1" style="stroke-width:.609756"/><circle cx="430.89" cy="79.09" r="6.1" style="stroke-width:.609756"/><circle cx="443.09" cy="79.09" r="6.1" style="stroke-width:.609756"/><circle cx="455.28" cy="79.09" r="6.1" style="stroke-width:.609756"/><circle cx="479.67" cy="79.09" r="6.1" style="stroke-width:.609756"/><circle cx="540.65" cy="79.09" r="6.1" style="stroke-width:.609756"/><circle cx="686.99" cy="79.09" r="6.1" style="stroke-width:.609756"/><circle cx="723.58" cy="79.09" r="6.1" style="stroke-width:.609756"/><circle cx="747.97" cy="79.09" r="6.1" style="stroke-width:.609756"/><circle cx="772.36" cy="79.09" r="6.1" style="stroke-width:.609756"/><circle cx="784.55" cy="79.09" r="6.1" style="stroke-width:.609756"/><circle cx="418.7" cy="91.28" r="6.1" style="stroke-width:.609756"/><circle cx="455.28" cy="91.28" r="6.1" style="stroke-width:.609756"/><circle cx="467.48" cy="91.28" r="6.1" style="stroke-width:.609756"/><circle cx="491.87" cy="91.28" r="6.1" style="stroke-width:.609756"/><circle cx="504.06" cy="91.28" r="6.1" style="stroke-width:.609756"/><circle cx="516.26" cy="91.28" r="6.1" style="stroke-width:.609756"/><circle cx="711.38" cy="91.28" r="6.1" style="stroke-width:.609756"/><circle cx="723.58" cy="91.28" r="6.1" style="stroke-width:.609756"/><circle cx="747.97" cy="91.28" r="6.1" style="stroke-width:.609756"/><circle cx="760.16" cy="91.28" r="6.1" style="stroke-width:.609756"/><circle cx="796.75" cy="91.28" r="6.1" style="stroke-width:.609756"/><circle cx="430.89" cy="103.48" r="6.1" style="stroke-width:.609756"/><circle cx="443.09" cy="103.48" r="6.1" style="stroke-width:.609756"/><circle cx="455.28" cy="103.48" r="6.1" style="stroke-width:.609756"/><circle cx="467.48" cy="103.48" r="6.1" style="stroke-width:.609756"/><circle cx="504.06" cy="103.48" r="6.1" style="stroke-width:.609756"/><circle cx="540.65" cy="103.48" r="6.1" style="stroke-width:.609756"/><circle cx="686.99" cy="103.48" r="6.1" style="stroke-width:.609756"/><circle cx="699.19" cy="103.48" r="6.1" style="stroke-width:.609756"/><circle cx="735.77" cy="103.48" r="6.1" style="stroke-width:.609756"/><circle cx="784.55" cy="103.48" r="6.1" style="stroke-width:.609756"/><circle cx="808.94" cy="103.48" r="6.1" style="stroke-width:.609756"/><circle cx="418.7" cy="115.67" r="6.1" style="stroke-width:.609756"/><circle cx="430.89" cy="115.67" r="6.1" style="stroke-width:.609756"/><circle cx="443.09" cy="115.67" r="6.1" style="stroke-width:.609756"/><circle cx="455.28" cy="115.67" r="6.1" style="stroke-width:.609756"/><circle cx="467.48" cy="115.67" r="6.1" style="stroke-width:.609756"/><circle cx="479.67" cy="115.67" r="6.1" style="stroke-width:.609756"/><circle cx="491.87" cy="115.67" r="6.1" style="stroke-width:.609756"/><circle cx="528.46" cy="115.67" r="6.1" style="stroke-width:.609756"/><circle cx="711.38" cy="115.67" r="6.1" style="stroke-width:.609756"/><circle cx="723.58" cy="115.67" r="6.1" style="stroke-width:.609756"/><circle cx="772.36" cy="115.67" r="6.1" style="stroke-width:.609756"/><circle cx="784.55" cy="115.67" r="6.1" style="stroke-width:.609756"/><circle cx="808.94" cy="115.67" r="6.1" style="stroke-width:.609756"/><circle cx="418.7" cy="127.87" r="6.1" style="stroke-width:.609756"/><circle cx="430.89" cy="127.87" r="6.1" style="stroke-width:.609756"/><circle cx="467.48" cy="127.87" r="6.1" style="stroke-width:.609756"/><circle cx="479.67" cy="127.87" r="6.1" style="stroke-width:.609756"/><circle cx="504.06" cy="127.87" r="6.1" style="stroke-width:.609756"/><circle cx="516.26" cy="127.87" r="6.1" style="stroke-width:.609756"/><circle cx="711.38" cy="127.87" r="6.1" style="stroke-width:.609756"/><circle cx="723.58" cy="127.87" r="6.1" style="stroke-width:.609756"/><circle cx="784.55" cy="127.87" r="6.1" style="stroke-width:.609756"/><circle cx="796.75" cy="127.87" r="6.1" style="stroke-width:.609756"/><circle cx="808.94" cy="127.87" r="6.1" style="stroke-width:.609756"/><circle cx="418.7" cy="140.06" r="6.1" style="stroke-width:.609756"/><circle cx="430.89" cy="140.06" r="6.1" style="stroke-width:.609756"/><circle cx="443.09" cy="140.06" r="6.1" style="stroke-width:.609756"/><circle cx="467.48" cy="140.06" r="6.1" style="stroke-width:.609756"/><circle cx="479.67" cy="140.06" r="6.1" style="stroke-width:.609756"/><circle cx="491.87" cy="140.06" r="6.1" style="stroke-width:.609756"/><circle cx="528.46" cy="140.06" r="6.1" style="stroke-width:.609756"/><circle cx="686.99" cy="140.06" r="6.1" style="stroke-width:.609756"/><circle cx="723.58" cy="140.06" r="6.1" style="stroke-width:.609756"/><circle cx="747.97" cy="140.06" r="6.1" style="stroke-width:.609756"/><circle cx="760.16" cy="140.06" r="6.1" style="stroke-width:.609756"/><circle cx="796.75" cy="140.06" r="6.1" style="stroke-width:.609756"/><circle cx="808.94" cy="140.06" r="6.1" style="stroke-width:.609756"/><circle cx="455.28" cy="152.26" r="6.1" style="stroke-width:.609756"/><circle cx="467.48" cy="152.26" r="6.1" style="stroke-width:.609756"/><circle cx="479.67" cy="152.26" r="6.1" style="stroke-width:.609756"/><circle cx="504.06" cy="152.26" r="6.1" style="stroke-width:.609756"/><circle cx="516.26" cy="152.26" r="6.1" style="stroke-width:.609756"/><circle cx="540.65" cy="152.26" r="6.1" style="stroke-width:.609756"/><circle cx="699.19" cy="152.26" r="6.1" style="stroke-width:.609756"/><circle cx="735.77" cy="152.26" r="6.1" style="stroke-width:.609756"/><circle cx="784.55" cy="152.26" r="6.1" style="stroke-width:.609756"/><circle cx="808.94" cy="152.26" r="6.1" style="stroke-width:.609756"/><circle cx="455.28" cy="164.45" r="6.1" style="stroke-width:.609756"/><circle cx="491.87" cy="164.45" r="6.1" style="stroke-width:.609756"/><circle cx="528.46" cy="164.45" r="6.1" style="stroke-width:.609756"/><circle cx="735.77" cy="164.45" r="6.1" style="stroke-width:.609756"/><circle cx="772.36" cy="164.45" r="6.1" style="stroke-width:.609756"/><circle cx="784.55" cy="164.45" r="6.1" style="stroke-width:.609756"/><circle cx="418.7" cy="176.65" r="6.1" style="stroke-width:.609756"/><circle cx="528.46" cy="176.65" r="6.1" style="stroke-width:.609756"/><circle cx="540.65" cy="176.65" r="6.1" style="stroke-width:.609756"/><circle cx="686.99" cy="176.65" r="6.1" style="stroke-width:.609756"/><circle cx="711.38" cy="176.65" r="6.1" style="stroke-width:.609756"/><circle cx="723.58" cy="176.65" r="6.1" style="stroke-width:.609756"/><circle cx="735.77" cy="176.65" r="6.1" style="stroke-width:.609756"/><circle cx="772.36" cy="176.65" r="6.1" style="stroke-width:.609756"/><circle cx="784.55" cy="176.65" r="6.1" style="stroke-width:.609756"/><circle cx="796.75" cy="176.65" r="6.1" style="stroke-width:.609756"/><circle cx="808.94" cy="176.65" r="6.1" style="stroke-width:.609756"/><circle cx="418.7" cy="188.85" r="6.1" style="stroke-width:.609756"/><circle cx="443.09" cy="188.85" r="6.1" style="stroke-width:.609756"/><circle cx="479.67" cy="188.85" r="6.1" style="stroke-width:.609756"/><circle cx="491.87" cy="188.85" r="6.1" style="stroke-width:.609756"/><circle cx="516.26" cy="188.85" r="6.1" style="stroke-width:.609756"/><circle cx="540.65" cy="188.85" r="6.1" style="stroke-width:.609756"/><circle cx="565.04" cy="188.85" r="6.1" style="stroke-width:.609756"/><circle cx="601.63" cy="188.85" r="6.1" style="stroke-width:.609756"/><circle cx="626.02" cy="188.85" r="6.1" style="stroke-width:.609756"/><circle cx="650.41" cy="188.85" r="6.1" style="stroke-width:.609756"/><circle cx="686.99" cy="188.85" r="6.1" style="stroke-width:.609756"/><circle cx="711.38" cy="188.85" r="6.1" style="stroke-width:.609756"/><circle cx="723.58" cy="188.85" r="6.1" style="stroke-width:.609756"/><circle cx="760.16" cy="188.85" r="6.1" style="stroke-width:.609756"/><circle cx="796.75" cy="188.85" r="6.1" style="stroke-width:.609756"/><circle cx="808.94" cy="188.85" r="6.1" style="stroke-width:.609756"/><circle cx="418.7" cy="201.04" r="6.1" style="stroke-width:.609756"/><circle cx="443.09" cy="201.04" r="6.1" style="stroke-width:.609756"/><circle cx="528.46" cy="201.04" r="6.1" style="stroke-width:.609756"/><circle cx="577.24" cy="201.04" r="6.1" style="stroke-width:.609756"/><circle cx="601.63" cy="201.04" r="6.1" style="stroke-width:.609756"/><circle cx="613.82" cy="201.04" r="6.1" style="stroke-width:.609756"/><circle cx="638.21" cy="201.04" r="6.1" style="stroke-width:.609756"/><circle cx="662.6" cy="201.04" r="6.1" style="stroke-width:.609756"/><circle cx="699.19" cy="201.04" r="6.1" style="stroke-width:.609756"/><circle cx="723.58" cy="201.04" r="6.1" style="stroke-width:.609756"/><circle cx="735.77" cy="201.04" r="6.1" style="stroke-width:.609756"/><circle cx="784.55" cy="201.04" r="6.1" style="stroke-width:.609756"/><circle cx="808.94" cy="201.04" r="6.1" style="stroke-width:.609756"/><circle cx="418.7" cy="213.24" r="6.1" style="stroke-width:.609756"/><circle cx="443.09" cy="213.24" r="6.1" style="stroke-width:.609756"/><circle cx="455.28" cy="213.24" r="6.1" style="stroke-width:.609756"/><circle cx="479.67" cy="213.24" r="6.1" style="stroke-width:.609756"/><circle cx="491.87" cy="213.24" r="6.1" style="stroke-width:.609756"/><circle cx="516.26" cy="213.24" r="6.1" style="stroke-width:.609756"/><circle cx="552.85" cy="213.24" r="6.1" style="stroke-width:.609756"/><circle cx="577.24" cy="213.24" r="6.1" style="stroke-width:.609756"/><circle cx="589.43" cy="213.24" r="6.1" style="stroke-width:.609756"/><circle cx="613.82" cy="213.24" r="6.1" style="stroke-width:.609756"/><circle cx="626.02" cy="213.24" r="6.1" style="stroke-width:.609756"/><circle cx="638.21" cy="213.24" r="6.1" style="stroke-width:.609756"/><circle cx="674.8" cy="213.24" r="6.1" style="stroke-width:.609756"/><circle cx="686.99" cy="213.24" r="6.1" style="stroke-width:.609756"/><circle cx="711.38" cy="213.24" r="6.1" style="stroke-width:.609756"/><circle cx="723.58" cy="213.24" r="6.1" style="stroke-width:.609756"/><circle cx="735.77" cy="213.24" r="6.1" style="stroke-width:.609756"/><circle cx="747.97" cy="213.24" r="6.1" style="stroke-width:.609756"/><circle cx="760.16" cy="213.24" r="6.1" style="stroke-width:.609756"/><circle cx="796.75" cy="213.24" r="6.1" style="stroke-width:.609756"/><circle cx="516.26" cy="225.43" r="6.1" style="stroke-width:.609756"/><circle cx="552.85" cy="225.43" r="6.1" style="stroke-width:.609756"/><circle cx="565.04" cy="225.43" r="6.1" style="stroke-width:.609756"/><circle cx="601.63" cy="225.43" r="6.1" style="stroke-width:.609756"/><circle cx="626.02" cy="225.43" r="6.1" style="stroke-width:.609756"/><circle cx="638.21" cy="225.43" r="6.1" style="stroke-width:.609756"/><circle cx="674.8" cy="225.43" r="6.1" style="stroke-width:.609756"/><circle cx="686.99" cy="225.43" r="6.1" style="stroke-width:.609756"/><circle cx="711.38" cy="225.43" r="6.1" style="stroke-width:.609756"/><circle cx="760.16" cy="225.43" r="6.1" style="stroke-width:.609756"/><circle cx="772.36" cy="225.43" r="6.1" style="stroke-width:.609756"/><circle cx="784.55" cy="225.43" r="6.1" style="stroke-width:.609756"/><circle cx="796.75" cy="225.43" r="6.1" style="stroke-width:.609756"/><circle cx="808.94" cy="225.43" r="6.1" style="stroke-width:.609756"/><circle cx="552.85" cy="237.63" r="6.1" style="stroke-width:.609756"/><circle cx="589.43" cy="237.63" r="6.1" style="stroke-width:.609756"/><circle cx="601.63" cy="237.63" r="6.1" style="stroke-width:.609756"/><circle cx="638.21" cy="237.63" r="6.1" style="stroke-width:.609756"/><circle cx="662.6" cy="237.63" r="6.1" style="stroke-width:.609756"/><circle cx="686.99" cy="237.63" r="6.1" style="stroke-width:.609756"/><circle cx="699.19" cy="237.63" r="6.1" style="stroke-width:.609756"/><circle cx="711.38" cy="237.63" r="6.1" style="stroke-width:.609756"/><circle cx="735.77" cy="237.63" r="6.1" style="stroke-width:.609756"/><circle cx="760.16" cy="237.63" r="6.1" style="stroke-width:.609756"/><circle cx="796.75" cy="237.63" r="6.1" style="stroke-width:.609756"/><circle cx="808.94" cy="237.63" r="6.1" style="stroke-width:.609756"/><circle cx="528.46" cy="249.82" r="6.1" style="stroke-width:.609756"/><circle cx="540.65" cy="249.82" r="6.1" style="stroke-width:.609756"/><circle cx="552.85" cy="249.82" r="6.1" style="stroke-width:.609756"/><circle cx="565.04" cy="249.82" r="6.1" style="stroke-width:.609756"/><circle cx="577.24" cy="249.82" r="6.1" style="stroke-width:.609756"/><circle cx="589.43" cy="249.82" r="6.1" style="stroke-width:.609756"/><circle cx="638.21" cy="249.82" r="6.1" style="stroke-width:.609756"/><circle cx="650.41" cy="249.82" r="6.1" style="stroke-width:.609756"/><circle cx="674.8" cy="249.82" r="6.1" style="stroke-width:.609756"/><circle cx="686.99" cy="249.82" r="6.1" style="stroke-width:.609756"/><circle cx="699.19" cy="249.82" r="6.1" style="stroke-width:.609756"/><circle cx="711.38" cy="249.82" r="6.1" style="stroke-width:.609756"/><circle cx="760.16" cy="249.82" r="6.1" style="stroke-width:.609756"/><circle cx="772.36" cy="249.82" r="6.1" style="stroke-width:.609756"/><circle cx="784.55" cy="249.82" r="6.1" style="stroke-width:.609756"/><circle cx="808.94" cy="249.82" r="6.1" style="stroke-width:.609756"/><circle cx="516.26" cy="262.02" r="6.1" style="stroke-width:.609756"/><circle cx="528.46" cy="262.02" r="6.1" style="stroke-width:.609756"/><circle cx="565.04" cy="262.02" r="6.1" style="stroke-width:.609756"/><circle cx="577.24" cy="262.02" r="6.1" style="stroke-width:.609756"/><circle cx="589.43" cy="262.02" r="6.1" style="stroke-width:.609756"/><circle cx="662.6" cy="262.02" r="6.1" style="stroke-width:.609756"/><circle cx="674.8" cy="262.02" r="6.1" style="stroke-width:.609756"/><circle cx="686.99" cy="262.02" r="6.1" style="stroke-width:.609756"/><circle cx="699.19" cy="262.02" r="6.1" style="stroke-width:.609756"/><circle cx="711.38" cy="262.02" r="6.1" style="stroke-width:.609756"/><circle cx="723.58" cy="262.02" r="6.1" style="stroke-width:.609756"/><circle cx="735.77" cy="262.02" r="6.1" style="stroke-width:.609756"/><circle cx="747.97" cy="262.02" r="6.1" style="stroke-width:.609756"/><circle cx="760.16" cy="262.02" r="6.1" style="stroke-width:.609756"/><circle cx="516.26" cy="274.21" r="6.1" style="stroke-width:.609756"/><circle cx="528.46" cy="274.21" r="6.1" style="stroke-width:.609756"/><circle cx="540.65" cy="274.21" r="6.1" style="stroke-width:.609756"/><circle cx="552.85" cy="274.21" r="6.1" style="stroke-width:.609756"/><circle cx="565.04" cy="274.21" r="6.1" style="stroke-width:.609756"/><circle cx="601.63" cy="274.21" r="6.1" style="stroke-width:.609756"/><circle cx="626.02" cy="274.21" r="6.1" style="stroke-width:.609756"/><circle cx="638.21" cy="274.21" r="6.1" style="stroke-width:.609756"/><circle cx="662.6" cy="274.21" r="6.1" style="stroke-width:.609756"/><circle cx="674.8" cy="274.21" r="6.1" style="stroke-width:.609756"/><circle cx="686.99" cy="274.21" r="6.1" style="stroke-width:.609756"/><circle cx="723.58" cy="274.21" r="6.1" style="stroke-width:.609756"/><circle cx="747.97" cy="274.21" r="6.1" style="stroke-width:.609756"/><circle cx="772.36" cy="274.21" r="6.1" style="stroke-width:.609756"/><circle cx="784.55" cy="274.21" r="6.1" style="stroke-width:.609756"/><circle cx="796.75" cy="274.21" r="6.1" style="stroke-width:.609756"/><circle cx="516.26" cy="286.41" r="6.1" style="stroke-width:.609756"/><circle cx="601.63" cy="286.41" r="6.1" style="stroke-width:.609756"/><circle cx="613.82" cy="286.41" r="6.1" style="stroke-width:.609756"/><circle cx="626.02" cy="286.41" r="6.1" style="stroke-width:.609756"/><circle cx="674.8" cy="286.41" r="6.1" style="stroke-width:.609756"/><circle cx="686.99" cy="286.41" r="6.1" style="stroke-width:.609756"/><circle cx="711.38" cy="286.41" r="6.1" style="stroke-width:.609756"/><circle cx="747.97" cy="286.41" r="6.1" style="stroke-width:.609756"/><circle cx="760.16" cy="286.41" r="6.1" style="stroke-width:.609756"/><circle cx="772.36" cy="286.41" r="6.1" style="stroke-width:.609756"/><circle cx="540.65" cy="298.6" r="6.1" style="stroke-width:.609756"/><circle cx="552.85" cy="298.6" r="6.1" style="stroke-width:.609756"/><circle cx="577.24" cy="298.6" r="6.1" style="stroke-width:.609756"/><circle cx="662.6" cy="298.6" r="6.1" style="stroke-width:.609756"/><circle cx="699.19" cy="298.6" r="6.1" style="stroke-width:.609756"/><circle cx="711.38" cy="298.6" r="6.1" style="stroke-width:.609756"/><circle cx="723.58" cy="298.6" r="6.1" style="stroke-width:.609756"/><circle cx="747.97" cy="298.6" r="6.1" style="stroke-width:.609756"/><circle cx="760.16" cy="298.6" r="6.1" style="stroke-width:.609756"/><circle cx="772.36" cy="298.6" r="6.1" style="stroke-width:.609756"/><circle cx="784.55" cy="298.6" r="6.1" style="stroke-width:.609756"/><circle cx="796.75" cy="298.6" r="6.1" style="stroke-width:.609756"/><circle cx="808.94" cy="298.6" r="6.1" style="stroke-width:.609756"/><circle cx="528.46" cy="310.8" r="6.1" style="stroke-width:.609756"/><circle cx="565.04" cy="310.8" r="6.1" style="stroke-width:.609756"/><circle cx="577.24" cy="310.8" r="6.1" style="stroke-width:.609756"/><circle cx="589.43" cy="310.8" r="6.1" style="stroke-width:.609756"/><circle cx="626.02" cy="310.8" r="6.1" style="stroke-width:.609756"/><circle cx="638.21" cy="310.8" r="6.1" style="stroke-width:.609756"/><circle cx="650.41" cy="310.8" r="6.1" style="stroke-width:.609756"/><circle cx="662.6" cy="310.8" r="6.1" style="stroke-width:.609756"/><circle cx="674.8" cy="310.8" r="6.1" style="stroke-width:.609756"/><circle cx="686.99" cy="310.8" r="6.1" style="stroke-width:.609756"/><circle cx="699.19" cy="310.8" r="6.1" style="stroke-width:.609756"/><circle cx="735.77" cy="310.8" r="6.1" style="stroke-width:.609756"/><circle cx="784.55" cy="310.8" r="6.1" style="stroke-width:.609756"/><circle cx="796.75" cy="310.8" r="6.1" style="stroke-width:.609756"/><path fill-rule="evenodd" d="M412.6-85.55h68.3a17.07 17.07 0 0 1 17.07 17.08v51.22A17.07 17.07 0 0 1 480.89-.18h-51.22a17.07 17.07 0 0 1-17.07-17.07v-51.22a17.07 17.07 0 0 1 17.07-17.08zm12.2 12.2h48.78a12.2 12.2 0 0 1 12.2 12.2v36.58a12.2 12.2 0 0 1-12.2 12.2h-36.59a12.2 12.2 0 0 1-12.2-12.2v-36.58a12.2 12.2 0 0 1 12.2-12.2zM729.67-85.55h68.3a17.07 17.07 0 0 1 17.07 17.08v51.22A17.07 17.07 0 0 1 797.97-.18h-51.22a17.07 17.07 0 0 1-17.08-17.07v-51.22a17.07 17.07 0 0 1 17.08-17.08zm12.2 12.2h48.78a12.2 12.2 0 0 1 12.2 12.2v36.58a12.2 12.2 0 0 1-12.2 12.2h-36.59a12.2 12.2 0 0 1-12.19-12.2v-36.58a12.2 12.2 0 0 1 12.2-12.2z" style="stroke-width:.609756"/><path d="M436.99-61.15h36.59v36.59h-36.59z" shape-rendering="crispEdges" style="stroke-width:.609756"/><path d="M552.85 54.7H674.8v121.95H552.85z" shape-rendering="crispEdges" style="fill:#fd0;fill-opacity:1;stroke-width:2.03252"/><path d="M754.06-61.15h36.59v36.59h-36.59z" shape-rendering="crispEdges" style="stroke-width:.609756"/><path fill-rule="evenodd" d="M412.6 231.53h68.3a17.07 17.07 0 0 1 17.07 17.07v51.22a17.07 17.07 0 0 1-17.08 17.07h-51.22a17.07 17.07 0 0 1-17.07-17.07V248.6a17.07 17.07 0 0 1 17.07-17.07zm12.2 12.2h48.78a12.2 12.2 0 0 1 12.2 12.19v36.58a12.2 12.2 0 0 1-12.2 12.2h-36.59a12.2 12.2 0 0 1-12.2-12.2v-36.58a12.2 12.2 0 0 1 12.2-12.2z" style="stroke-width:.609756"/><path d="M436.99 255.92h36.59v36.59h-36.59z" shape-rendering="crispEdges" style="stroke-width:.609756"/><g style="fill:none"><path fill="#0d0c22" d="m643.79 86.4-.09-.09-.17-.09zm1.11 7.8h-.08zm-1.11-7.89v.09zm0 .09v-.09zm1.03 7.8.17-.09.09-.08zm-.77-7.63-.17-.17h-.09zm-31.22 75.98-.26.18h.09zm18.1-3.51v.25zm-1.9 3.51-.25.18h.09zm-28.98.86-.26-.08zm-2.83-2.74-.09-.35z"/><path fill="#fd0" d="M473 591c-46 20-98 42-166 42-28 0-56-4-84-12l47 480a80 80 0 0 0 80 74l88 3 96-3a80 80 0 0 0 79-74l50-530c-22-8-44-13-70-13-44 0-79 15-120 33z" style="fill:#fff;fill-opacity:1" transform="matrix(.0858 0 0 .0858 575.95 60.84)"/><path fill="#0d0c22" d="M582.73 93.94v.09h.08z"/><path fill="#0d0c22" d="m651.42 90.17-.6-3.09c-.6-2.66-1.8-5.32-4.63-6.26-.86-.34-1.89-.43-2.57-1.11a4.04 4.04 0 0 1-1.03-2.58l-.94-5.23c-.26-1.46-.43-3.17-1.12-4.46-.86-1.89-2.74-2.91-4.54-3.6-.95-.43-1.9-.69-2.84-.94-4.63-1.2-9.43-1.63-14.06-1.9-5.66-.33-11.32-.16-16.98.27-4.12.43-8.58.85-12.52 2.31-1.46.52-3 1.2-4.03 2.32a4.37 4.37 0 0 0-.86 5.23 6.91 6.91 0 0 0 3.17 2.66 25.7 25.7 0 0 0 5.15 1.63 114.4 114.4 0 0 0 35.76.6c1.63-.26 2.66-2.32 2.14-3.78-.51-1.8-2.05-2.4-3.77-2.14l-.77.09h-.17a105.83 105.83 0 0 1-26.85.08l-.51-.08h-.09l-.51-.09a57.03 57.03 0 0 1-3.6-.77.51.51 0 0 1 .25-.77 53.69 53.69 0 0 1 3.86-.69l1.8-.17a114.58 114.58 0 0 1 24.88.08l.6.09h.43l3.68.69c1.8.43 4.03.51 4.9 2.48.25.6.33 1.29.5 1.98l.18.85a13172.37 13172.37 0 0 0 1.28 6.35 1.11 1.11 0 0 1-.94.86l-.26.08h-.25a143.23 143.23 0 0 1-21.7 1.38 169.47 169.47 0 0 1-21.44-1.38l-.6-.08-1.29-.26-4.46-.69a7.63 7.63 0 0 0-5.15.7 7.55 7.55 0 0 0-3.08 3.25c-.69 1.46-.95 3-1.2 4.55-.35 1.54-.86 3.25-.69 4.8a7.74 7.74 0 0 0 6.35 6.86 177.7 177.7 0 0 0 51.8 1.71 2.23 2.23 0 0 1 2.4 2.5l-.26 3.16a1303650.23 1303650.23 0 0 1-4.71 45.29c-.18 1.88-.18 3.77-.52 5.66-.6 2.91-2.57 4.63-5.4 5.32-2.66.6-5.32.94-8.06.94l-9-.09c-3.18 0-7.04-.25-9.53-2.66-2.23-2.05-2.49-5.4-2.74-8.23l-1.2-11.23-2.15-20.76-1.46-13.46-.08-.69c-.17-1.63-1.29-3.17-3.09-3.09-1.54 0-3.26 1.38-3.09 3.09l1.03 9.95 2.15 20.67 1.88 17.58.35 3.43c.68 6.09 5.31 9.43 11.15 10.38 3.43.51 6.86.68 10.29.68 4.46.09 8.92.26 13.29-.51 6.43-1.2 11.24-5.49 11.92-12.18a65092.55 65092.55 0 0 0 2.57-24.87l2.15-20.84.94-9.52a2.23 2.23 0 0 1 1.8-1.89c1.8-.43 3.6-1.03 4.9-2.4 2.05-2.23 2.48-5.15 1.8-8.06zm-69.3 2.06v.34zm.26 1.37.09.09-.17-.1zm.17.26c0 .08.09.17 0 0zm.35.25zm61.75-.42c-.69.6-1.72.94-2.66 1.02a186.28 186.28 0 0 1-57.2-.17c-.78-.08-1.64-.25-2.15-.77-1.03-1.11-.51-3.26-.26-4.54.26-1.2.69-2.83 2.15-3 2.23-.26 4.8.68 6.94 1.02a153.26 153.26 0 0 0 48.2-.6c1.89-.34 3.86-.94 4.98.95.77 1.28.85 3 .77 4.46a2.9 2.9 0 0 1-.77 1.63z"/></g></g></svg>